HIERARCHY
ROOT root
{
	OFFSET 0.0 0.0 0.0
	CHANNELS 6 xposition yposition zposition zrotation yrotation xrotation
	JOINT lhip
	{
		OFFSET 1.57338 -1.94743 0.52196
		CHANNELS 3 zrotation yrotation xrotation
		JOINT lknee
		{
			OFFSET 2.60333 -7.15259 0.0
			CHANNELS 3 zrotation yrotation xrotation
			JOINT lankle
			{
				OFFSET 2.77855 -7.634 0.0
				CHANNELS 3 zrotation yrotation xrotation
				JOINT ltoe
				{
					OFFSET 0.19847 -0.54529 2.28466
					CHANNELS 3 zrotation yrotation xrotation
				}
			}
		}
	}
	JOINT rhip
	{
		OFFSET -1.61527 -1.94743 0.52196
		CHANNELS 3 zrotation yrotation xrotation
		JOINT rknee
		{
			OFFSET -2.53829 -6.9739 0.0
			CHANNELS 3 zrotation yrotation xrotation
			JOINT rankle
			{
				OFFSET -2.80762 -7.71387 0.0
				CHANNELS 3 zrotation yrotation xrotation
				JOINT rtoe
				{
					OFFSET -0.30536 -0.83898 2.28801
					CHANNELS 3 zrotation yrotation xrotation
				}
			}
		}
	}
	JOINT lowerback
	{
		OFFSET 0.0 0.0 0.0
		CHANNELS 3 zrotation yrotation xrotation
		JOINT upperback
		{
			OFFSET -0.04381 1.99497 -0.19778
			CHANNELS 3 zrotation yrotation xrotation
			JOINT chest
			{
				OFFSET -0.01959 2.01295 -0.04372
				CHANNELS 3 zrotation yrotation xrotation
				JOINT lowerneck
				{
					OFFSET 0.0 0.0 0.0
					CHANNELS 3 zrotation yrotation xrotation
					JOINT upperneck
					{
						OFFSET 0.09461 1.77368 -0.11172
						CHANNELS 3 zrotation yrotation xrotation
					}
				}
				JOINT lclavicle
				{
					OFFSET 0.0 0.0 0.0
					CHANNELS 3 zrotation yrotation xrotation
					JOINT lshoulder
					{
						OFFSET 3.50922 1.24034 -0.28866
						CHANNELS 3 zrotation xrotation yrotation
						JOINT lelbow
						{
							OFFSET 0.0 -5.40188 0.0
							CHANNELS 3 zrotation xrotation yrotation
							JOINT lwrist
							{
								OFFSET 0.0 -3.68559 0.0
								CHANNELS 3 zrotation xrotation yrotation
							}
						}
					}
				}
				JOINT rclavicle
				{
					OFFSET 0.0 0.0 0.0
					CHANNELS 3 zrotation yrotation xrotation
					JOINT rshoulder
					{
						OFFSET -2.95373 1.39649 -0.27346
						CHANNELS 3 zrotation xrotation yrotation
						JOINT relbow
						{
							OFFSET 0.0 -6.1067 -0.0
							CHANNELS 3 zrotation xrotation yrotation
							JOINT rwrist
							{
								OFFSET 0.0 -3.63052 0.0
								CHANNELS 3 zrotation xrotation yrotation
							}
						}
					}
				}
			}
		}
	}
}
MOTION
FRAMES: 7
FRAME TIME: 0.0083333
-2.6596 -3.258499999999996 17.8526 133.95299999999997 173.19300000000004 -176.904 5.129099999999998 9.599600000000002 -7.7031 15.011500000000002 -6.629199999999996 47.4576 -6.2829 -0.1297000000000014 -7.2552 -7.5757 -1.4357000000000018 -21.4326 29.885099999999998 10.976700000000006 -22.8155 -14.674700000000001 6.258899999999996 46.0122 1.1958 -0.004499999999999734 0.4696 5.6962 0.7964000000000012 -15.9055 -2.6263000000000014 6.687499999999999 12.542 -4.1382 -1.608000000000001 4.2687 -2.0818999999999988 -6.0158000000000005 -1.9114 -5.398500000000002 9.481899999999998 4.2233 -8.366999999999997 -13.870300000000002 9.5829 0.0 0.0 0.0 -64.1376 -23.4364 -6.726700000000014 109.20840000000003 -40.0633 -150.95209999999997 -20.744100000000003 -51.9417 12.690899999999994 0.0 0.0 0.0 7.562299999999994 -13.3646 23.0992 -111.42830000000002 -36.6849 154.52559999999997 -7.317700000000005 0.6496 18.1634 
-2.661 -3.248199999999996 17.8688 134.55099999999996 173.71400000000003 -177.371 4.415699999999998 9.067200000000001 -7.3944 15.037600000000001 -6.658599999999996 47.5711 -6.2855 -0.0631000000000014 -5.9152 -7.2018 -1.2919000000000016 -20.3148 29.547599999999996 10.359200000000007 -23.4363 -14.660900000000002 6.244199999999997 45.954 1.3832 -0.002999999999999693 -0.5451 5.6138 0.7730000000000012 -15.6678 -2.5785000000000013 6.122699999999999 12.8246 -4.0315 -1.4660000000000009 4.1878 -2.0093999999999985 -5.5562000000000005 -2.2213 -5.366900000000002 9.380799999999999 4.019 -8.303099999999997 -13.590100000000001 9.7276 0.0 0.0 0.0 -63.8676 -22.9971 -6.856300000000014 109.15610000000002 -40.1351 -150.87089999999998 -20.642000000000003 -51.4052 12.655199999999995 0.0 0.0 0.0 8.663699999999995 -13.7858 23.298900000000003 -111.09590000000003 -37.2356 153.97279999999998 -7.400300000000004 0.937 18.2515 
-2.65 -3.242999999999996 17.8742 135.09699999999998 173.62200000000004 -177.563 3.6131999999999977 9.0826 -6.7719 15.075000000000001 -6.7011999999999965 47.735 -6.0377 -0.03580000000000134 -5.1568 -6.5709 -1.0683000000000016 -18.4501 29.091299999999997 10.086300000000007 -23.7556 -14.657900000000001 6.240999999999996 45.9416 1.4686 0.008200000000000327 -1.7857 5.5538 0.7562000000000012 -15.4952 -2.4722000000000013 5.944399999999999 13.0651 -3.8897999999999997 -1.231100000000001 4.2042 -1.9296999999999989 -5.2045 -2.385 -5.385600000000002 9.300099999999999 3.7635 -8.300399999999996 -13.317500000000003 9.8201 0.0 0.0 0.0 -63.8415 -22.7247 -6.834000000000014 109.12520000000004 -40.1775 -150.82289999999998 -20.682300000000005 -50.9668 12.487799999999995 0.0 0.0 0.0 9.620899999999995 -13.983 23.450300000000002 -110.75030000000002 -37.7899 153.40529999999998 -7.965900000000005 1.2089 18.6385 
-2.6323 -3.247199999999996 17.8766 135.59999999999997 173.48400000000004 -177.651 2.8031999999999977 9.1921 -6.1756 15.113800000000001 -6.745599999999996 47.9054 -5.3336 -0.045000000000001185 -5.0084 -6.3358 -0.9910000000000014 -17.762 28.829499999999996 9.844200000000008 -24.0072 -14.668000000000001 6.2518999999999965 45.9843 1.2876 0.030900000000000285 -3.1252 5.643 0.7812000000000012 -15.752 -2.4281000000000015 5.9780999999999995 13.1018 -3.8394999999999997 -1.1436000000000008 4.2525 -1.9060999999999988 -5.125 -2.3646 -5.314800000000002 9.588599999999998 3.312 -8.179899999999996 -13.133400000000002 9.9281 0.0 0.0 0.0 -63.6512 -22.5392 -6.520600000000014 109.04490000000003 -40.2871 -150.69849999999997 -20.591100000000004 -50.5159 12.500599999999995 0.0 0.0 0.0 10.799099999999994 -14.1222 23.630300000000002 -110.45610000000003 -38.2482 152.92759999999998 -8.587200000000003 1.4818 19.029399999999995 
-2.6183 -3.256199999999996 17.8688 136.10299999999998 173.29000000000002 -177.526 1.968199999999998 9.3655 -5.785 15.144800000000002 -6.781099999999997 48.0416 -4.1952 -0.07290000000000094 -5.253 -6.316 -0.9846000000000015 -17.7041 28.773799999999998 9.783600000000007 -24.4246 -14.687200000000002 6.272399999999997 46.0655 0.9077 0.0561000000000002 -4.2469 5.5379 0.7518000000000012 -15.4494 -2.4613000000000014 6.216599999999999 12.9928 -3.9064999999999994 -1.1674000000000009 4.2766 -1.9461999999999988 -5.2854 -2.2517 -5.138700000000003 10.087999999999997 2.599 -7.898799999999997 -12.912200000000002 10.0955 0.0 0.0 0.0 -63.2085 -22.3491 -6.044900000000014 108.97470000000003 -40.3822 -150.59009999999998 -20.698500000000003 -50.0777 12.588299999999995 0.0 0.0 0.0 12.182999999999995 -14.3556 23.820100000000004 -110.11550000000003 -38.7636 152.38049999999998 -9.778600000000004 1.6839 19.866099999999996 
-2.6062 -3.270199999999996 17.8448 136.66699999999997 172.52900000000002 -177.031 1.1477999999999977 10.0332 -5.3344 15.158600000000002 -6.797099999999997 48.1025 -2.9454 -0.10420000000000065 -5.7852 -6.0245 -0.8934000000000013 -16.8554 28.837599999999995 10.265000000000008 -24.8611 -14.711800000000002 6.298799999999996 46.1696 0.6338 0.06960000000000013 -4.7971 5.3368 0.6970000000000012 -14.8718 -2.394700000000001 6.912599999999999 12.8321 -3.8988999999999994 -1.046200000000001 4.3042 -1.9528999999999987 -5.5374 -2.0933 -5.006000000000003 10.300999999999998 1.9682 -7.655999999999997 -12.616700000000002 10.1464 0.0 0.0 0.0 -62.9414 -22.0263 -5.697500000000014 108.96860000000002 -40.3905 -150.58059999999998 -20.814300000000003 -49.6703 12.442699999999995 0.0 0.0 0.0 13.272499999999996 -14.5555 23.990900000000003 -109.73750000000003 -39.3176 151.78049999999996 -10.719400000000006 1.6502 20.494199999999996 
-2.5885 -3.281299999999996 17.8115 137.16199999999998 172.11100000000002 -176.914 0.43999999999999767 10.4305 -4.7243 15.145300000000002 -6.781799999999996 48.044 -1.961 -0.13110000000000044 -6.4381 -5.8374 -0.8374000000000014 -16.3133 29.100499999999997 10.387400000000007 -24.9547 -14.725000000000001 6.313099999999997 46.2256 0.505 0.0705000000000001 -4.8608 5.4348 0.7234000000000013 -15.1531 -2.324300000000002 7.261899999999999 12.7819 -3.8471 -0.9345000000000009 4.3525 -1.9333999999999987 -5.6046 -2.0046 -4.9170000000000025 10.290999999999999 1.4979 -7.470299999999997 -12.306000000000001 10.0694 0.0 0.0 0.0 -62.8525 -21.5679 -5.434900000000014 108.98310000000002 -40.3709 -150.60299999999998 -20.950100000000003 -49.3143 12.161199999999994 0.0 0.0 0.0 14.188499999999994 -14.6492 24.069200000000002 -109.46280000000003 -39.709 151.34859999999998 -10.374600000000004 1.632 20.126199999999997 
